# xmcd
#
# Track frame offsets:
# 150
# 19987
# 29129
# 36751
# 45712
# 52774
# 63685
# 69372
# 74412
# 86111
# 91604
# 96535
# 107821
# 115647
# 137818
# 150125
# 166271
# 181426
# 187829
# 192117
# 199432
# 209496
# 219124
# 223072
# 235485
# 246723
# 274732
# 285893
# 291069
# 307127
# 319713
# 330712
#
# Disc length: 4548 seconds
#
#
# Revision: 0
# Processed by: cddbd v1.5.2PL0 Copyright (c) Steve Scherf et al.
# Submitted via: FreeRIP 2.951 
#
DISCID=e411c220
DTITLE=Johann Sebastian Bach - Goldberg-Variations [CD 1 klavichordy)
DYEAR=2005
DGENRE=
TTITLE0=Aria
TTITLE1=Variatio 1
TTITLE2=Variatio 2
TTITLE3=Variatio 3
TTITLE4=Variatio 4
TTITLE5=Variatio 5
TTITLE6=Variatio 6
TTITLE7=Variatio 7
TTITLE8=Variatio 8
TTITLE9=Variatio 9
TTITLE10=Variatio 10
TTITLE11=Variatio 11
TTITLE12=Variatio 12
TTITLE13=Variatio 13
TTITLE14=Variatio 14
TTITLE15=Variatio 15
TTITLE16=Variatio 16
TTITLE17=Variatio 17
TTITLE18=Variatio 18
TTITLE19=Variatio 19
TTITLE20=Variatio 20
TTITLE21=Variatio 21
TTITLE22=Variatio 22
TTITLE23=Variatio 23
TTITLE24=Variatio 24
TTITLE25=Variatio 25
TTITLE26=Variatio 26
TTITLE27=Variatio 27
TTITLE28=Variatio 28
TTITLE29=Variatio 29
TTITLE30=Variatio 30
TTITLE31=Aria
EXTD=
EXTT0=
EXTT1=
EXTT2=
EXTT3=
EXTT4=
EXTT5=
EXTT6=
EXTT7=
EXTT8=
EXTT9=
EXTT10=
EXTT11=
EXTT12=
EXTT13=
EXTT14=
EXTT15=
EXTT16=
EXTT17=
EXTT18=
EXTT19=
EXTT20=
EXTT21=
EXTT22=
EXTT23=
EXTT24=
EXTT25=
EXTT26=
EXTT27=
EXTT28=
EXTT29=
EXTT30=
EXTT31=
PLAYORDER=
